<svg width="49" height="50" xmlns="http://www.w3.org/2000/svg" xmlns:xlink="http://www.w3.org/1999/xlink" overflow="hidden"><defs><clipPath id="clip0"><rect x="238" y="349" width="49" height="50"/></clipPath></defs><g clip-path="url(#clip0)" transform="translate(-238 -349)"><path d="M286.622 394.597 276.589 384.218C279.395 380.39 280.888 375.757 280.846 371.011 280.845 358.748 271.42 349 259.562 349 247.705 349 238.279 358.748 238.279 371.013 238.279 383.278 247.703 393.025 259.562 393.025 264.196 393.053 268.7 391.5 272.332 388.623L282.366 399ZM244.36 371.013C244.36 362.208 251.05 355.29 259.562 355.29 268.075 355.29 274.765 362.208 274.765 371.013 274.765 379.817 268.075 386.736 259.562 386.736 251.05 386.736 244.36 379.817 244.36 371.013Z" fill="#F6AB92"/></g></svg>